<?xml version="1.0" standalone="no"?>
<!DOCTYPE svg PUBLIC "-//W3C//DTD SVG 20010904//EN"
 "http://www.w3.org/TR/2001/REC-SVG-20010904/DTD/svg10.dtd">
<svg version="1.0" xmlns="http://www.w3.org/2000/svg"
 width="96.000000pt" height="96.000000pt" viewBox="0 0 96.000000 96.000000"
 preserveAspectRatio="xMidYMid meet">
<metadata>
Created by potrace 1.11, written by Peter Selinger 2001-2013
</metadata>
<g transform="translate(0.000000,96.000000) scale(0.100000,-0.100000)"
fill="#000000" stroke="none">
<path d="M0 480 l0 -480 480 0 480 0 0 480 0 480 -480 0 -480 0 0 -480z m225
307 c4 -23 2 -37 -4 -37 -6 0 -11 19 -11 42 0 49 7 47 15 -5z m477 13 c-2 -16
-9 -27 -14 -24 -5 3 -8 -1 -6 -9 2 -9 -6 -23 -17 -31 -16 -13 -17 -15 -2 -10
11 4 17 1 17 -7 0 -28 -18 -42 -44 -37 -15 3 -29 1 -33 -5 -3 -6 -1 -7 5 -3 7
4 12 3 12 -2 0 -6 10 -8 21 -5 12 4 20 2 18 -3 -2 -5 -12 -30 -23 -57 -10 -26
-23 -47 -27 -47 -5 0 -9 -9 -9 -19 0 -10 -7 -22 -16 -25 -8 -3 -13 -10 -9 -16
3 -5 -1 -23 -10 -39 -17 -34 -20 -87 -5 -96 6 -4 8 -11 5 -16 -4 -5 -4 -9 -1
-9 2 0 12 -3 22 -7 13 -5 15 -3 9 8 -6 11 -5 12 5 2 18 -17 13 -20 -34 -25
-41 -3 -63 16 -29 25 10 3 5 4 -12 2 -33 -3 -87 -23 -67 -24 7 -1 22 3 32 9
13 7 19 6 23 -5 4 -9 -2 -15 -15 -17 -22 -3 -22 -3 -2 -22 17 -17 17 -19 2
-13 -10 3 -18 2 -18 -3 0 -19 -62 -2 -78 21 -9 13 -16 26 -15 29 1 3 -17 5
-40 6 -23 0 -82 2 -132 3 l-90 4 95 13 c60 9 99 20 106 29 6 8 16 15 22 15 6
0 14 5 17 10 4 7 -3 9 -19 6 -28 -5 -53 24 -40 46 5 7 3 8 -6 3 -10 -6 -12 -3
-7 14 4 17 2 21 -8 17 -19 -7 -31 33 -15 48 10 8 12 7 7 -6 -6 -16 15 -33 27
-21 8 8 -25 38 -43 38 -33 0 -71 125 -38 125 9 0 8 3 -2 9 -10 6 -10 10 -1 16
6 4 12 5 14 4 8 -12 23 -105 17 -109 -10 -8 -7 -30 4 -29 6 1 9 5 7 10 -1 5 1
9 5 9 10 0 47 -62 45 -72 -1 -5 4 -8 12 -8 8 0 17 -4 20 -9 4 -5 -3 -7 -14 -4
-11 3 -20 3 -20 0 0 -2 8 -7 19 -10 20 -5 89 23 87 36 0 4 10 19 23 33 13 13
18 24 12 24 -8 0 -9 6 -2 19 13 24 6 30 -27 25 -25 -3 -25 -2 6 13 22 12 35
27 39 45 3 15 9 25 14 22 5 -3 9 -1 9 5 0 5 -5 11 -11 13 -7 2 -8 20 -3 53 7
46 8 48 14 20 4 -16 3 -38 -2 -47 -5 -11 -5 -18 2 -18 5 0 10 -9 10 -19 0 -41
10 -50 42 -40 32 9 149 123 148 144 -1 20 1 25 8 25 5 0 7 -13 4 -30z m-52
-470 c-19 -13 -30 -13 -30 0 0 6 10 10 23 10 18 0 19 -2 7 -10z m-141 -112 c2
-38 -3 -43 -34 -31 -15 5 -14 8 6 20 l24 14 -27 -6 c-20 -4 -30 0 -38 14 -11
22 -6 25 38 27 26 1 28 -2 31 -38z m11 -84 c0 -17 -14 -18 -28 -1 -8 10 -6 13
9 14 10 1 19 -5 19 -13z"/>
<path d="M480 673 c0 -6 -3 -18 -6 -27 -3 -9 -1 -16 6 -16 6 0 9 4 6 9 -4 5
-2 11 4 13 6 2 6 8 0 18 -6 9 -10 10 -10 3z"/>
<path d="M587 654 c-6 -7 -34 -12 -67 -13 -18 -1 -21 -4 -11 -10 11 -7 11 -10
0 -15 -11 -5 -11 -7 -1 -12 19 -9 14 -22 -15 -38 -16 -8 -26 -16 -23 -16 29
-7 39 -7 34 1 -3 5 0 9 6 9 8 0 11 -21 8 -65 -2 -46 1 -65 9 -65 7 0 10 7 7
15 -4 10 0 15 12 16 11 0 13 3 7 6 -9 3 -8 11 5 31 9 15 21 30 27 34 5 4 7 8
3 8 -4 0 2 19 12 43 11 23 20 47 20 53 0 13 -25 26 -33 18z"/>
<path d="M470 590 c-9 -6 -10 -10 -3 -10 6 0 15 5 18 10 8 12 4 12 -15 0z"/>
<path d="M425 470 c3 -6 -1 -10 -10 -10 -8 0 -18 -6 -21 -14 -3 -8 -13 -13
-22 -12 -9 2 -26 0 -37 -5 -17 -6 -15 -8 10 -8 25 -1 32 -6 41 -36 6 -19 8
-33 5 -31 -3 2 -15 0 -26 -5 -14 -5 -3 -8 36 -8 66 -1 89 17 93 73 2 20 1 34
-2 31 -3 -3 -12 1 -21 8 -21 18 -54 30 -46 17z"/>
<path d="M438 293 c7 -3 16 -2 19 1 4 3 -2 6 -13 5 -11 0 -14 -3 -6 -6z"/>
</g>
</svg>
